<svg width="360" height="714" viewBox="0 0 360 714" fill="none" xmlns="http://www.w3.org/2000/svg">
<g filter="url(#filter0_f_55_1426)">
<path d="M227.204 -1065.65C226.792 -1065.24 226.789 -1064.83 226.786 -1064.42L266.452 -994.463L186.118 -995.041C185.708 -995.044 185.708 -995.044 185.295 -994.637C185.292 -994.227 185.289 -993.817 185.289 -993.817L225.36 -923.039L185.108 -854.477L145.441 -924.433C145.441 -924.433 145.441 -924.433 145.032 -924.436L64.2876 -925.016L104.955 -994.395C105.368 -994.801 104.961 -995.214 104.554 -995.627C104.147 -996.04 103.735 -995.633 103.322 -995.226L61.8254 -924.624C61.8225 -924.214 61.8225 -924.214 61.8195 -923.804L101.89 -853.026L19.3101 -712.229C18.8973 -711.822 19.3042 -711.409 19.7111 -710.997C19.7111 -710.997 20.121 -710.994 20.5308 -710.991C20.9407 -710.988 20.9407 -710.988 20.9437 -711.398L61.6114 -780.776L141.351 -640.452L101.099 -571.89L61.4328 -641.846C61.0258 -642.259 60.616 -642.262 60.2061 -642.264C59.7933 -641.858 59.7904 -641.448 59.7874 -641.038L99.4538 -571.082L19.5295 -571.657C19.1197 -571.659 19.1197 -571.66 18.7069 -571.253L-22.7895 -500.651C-23.2023 -500.244 -22.7954 -499.831 -22.3884 -499.418C-21.9786 -499.415 -21.9786 -499.415 -21.5687 -499.412C-21.1588 -499.409 -21.1559 -499.819 -21.1559 -499.819L19.5118 -569.198L98.8476 -429.696L18.5135 -430.273C18.1036 -430.276 18.1036 -430.276 17.6908 -429.869L-23.8055 -359.267C-23.8085 -358.858 -23.8085 -358.858 -23.8114 -358.448C-23.8144 -358.038 -23.4045 -358.035 -22.9946 -358.032L58.1593 -357.449L97.4217 -288.316L17.4974 -288.89C17.0875 -288.893 16.6747 -288.486 16.6718 -288.076C16.6689 -287.667 17.0758 -287.254 17.4856 -287.251L97.8198 -286.673L57.5678 -218.112L-23.5861 -218.695L-63.6565 -289.473C-64.0634 -289.886 -64.4733 -289.889 -64.8831 -289.892C-65.2959 -289.485 -65.2989 -289.075 -65.3018 -288.665L-25.6354 -218.71L-105.56 -219.284C-105.56 -219.284 -105.97 -219.287 -106.382 -218.88L-106.385 -218.47L-106.388 -218.06L-65.911 -146.869C-65.504 -146.457 -65.504 -146.457 -65.0942 -146.454L15.24 -145.876L-25.4278 -76.4979C-25.8406 -76.0911 -25.4337 -75.6783 -25.0267 -75.2656C-24.6198 -74.8529 -24.207 -75.2597 -23.7942 -75.6666L16.8736 -145.045L56.136 -75.9117L15.0525 -5.71665L15.0496 -5.30693L54.716 64.6489L-26.0281 64.0686C-26.4379 64.0657 -26.8507 64.4726 -26.8537 64.8823C-26.8566 65.2922 -26.4497 65.7049 -26.0398 65.7079L55.1141 66.2911L95.1874 136.66L54.9354 205.221L15.269 135.266C14.8621 134.853 14.4522 134.85 14.0423 134.847C13.6295 135.254 13.6266 135.664 13.6236 136.073L53.29 206.029L-27.0441 205.452C-27.0441 205.452 -27.454 205.449 -27.4569 205.859L-68.9532 276.461C-69.3661 276.868 -68.9591 277.28 -68.5522 277.693C-68.1453 278.106 -67.7325 277.699 -67.3197 277.292L-26.6519 207.914L53.0878 348.238L12.0043 418.433L12.0014 418.843L51.6678 488.799L-29.0762 488.218C-29.4861 488.215 -29.8989 488.622 -29.9018 489.032C-29.9048 489.442 -29.4979 489.855 -29.088 489.858L52.0659 490.441L92.1392 560.809L51.0557 631.004C51.0528 631.414 51.0528 631.414 51.0498 631.824L91.5272 703.015C91.9341 703.428 92.3439 703.431 92.7538 703.434C93.1666 703.027 93.1696 702.617 93.1725 702.207L53.5061 632.251L133.84 632.829C133.84 632.829 133.84 632.829 134.25 632.832L175.334 562.637L255.258 563.211L214.59 632.589C214.177 632.996 214.584 633.409 214.991 633.822C215.398 634.235 215.811 633.828 216.224 633.421L298.385 493.85L338.051 563.806C338.458 564.219 338.868 564.222 339.278 564.225C339.688 564.228 339.691 563.818 339.691 563.818C339.694 563.408 339.694 563.408 339.697 562.998L299.626 492.22L340.71 422.025C341.123 421.618 340.716 421.205 340.309 420.792C339.902 420.38 339.489 420.786 339.076 421.193L298.408 490.572L219.073 351.07L299.407 351.647C299.817 351.65 300.229 351.244 300.232 350.834C300.235 350.424 299.828 350.011 299.419 350.008L219.084 349.431L259.336 280.869L340.49 281.452C340.9 281.455 340.9 281.455 341.313 281.048L382.809 210.446C383.222 210.04 382.815 209.627 382.408 209.214C382.001 208.801 381.589 209.208 381.176 209.615L340.508 278.993L300.842 209.038L300.435 208.625L220.101 208.048L260.352 139.486L341.506 140.069C341.916 140.072 342.329 139.665 342.332 139.255C342.335 138.846 341.928 138.433 341.518 138.43L261.184 137.852L343.345 -1.7181C343.758 -2.12499 343.351 -2.53772 342.944 -2.95051C342.537 -3.36323 342.124 -2.95634 341.712 -2.5495L301.044 66.829L221.708 -72.6727L302.042 -72.0954C302.452 -72.0925 302.452 -72.0925 302.865 -72.4994C302.868 -72.9092 302.868 -72.9091 302.871 -73.319L262.8 -144.097L303.052 -212.659L383.199 -71.922C383.606 -71.5093 384.016 -71.5063 384.426 -71.5034C384.836 -71.5004 384.838 -71.9103 384.838 -71.9103C384.841 -72.3201 384.841 -72.32 384.844 -72.7299L345.178 -142.686L425.512 -142.108C425.512 -142.108 425.922 -142.105 425.925 -142.515L467.421 -213.117C467.834 -213.524 467.427 -213.937 467.02 -214.349C466.613 -214.762 466.2 -214.355 465.788 -213.948L425.12 -144.57L344.976 -285.717C344.976 -285.717 344.569 -286.13 344.159 -286.133L263.825 -286.71L304.077 -355.272L385.231 -354.689C385.641 -354.686 386.054 -355.093 386.057 -355.502C386.06 -355.912 385.653 -356.325 385.243 -356.328L304.089 -356.911L264.827 -426.044L345.161 -425.467C345.571 -425.464 345.571 -425.464 345.983 -425.871C345.986 -426.281 345.986 -426.281 345.989 -426.69L306.323 -496.646L386.657 -496.069C387.067 -496.066 387.067 -496.066 387.48 -496.473L428.976 -567.075C429.389 -567.482 428.982 -567.894 428.575 -568.307C428.168 -568.72 427.755 -568.313 427.342 -567.906L386.675 -498.528L347.008 -568.484L346.601 -568.896L266.267 -569.474L347.6 -707.821L387.266 -637.865C387.673 -637.452 388.083 -637.449 388.493 -637.446L388.906 -637.853C388.909 -638.263 388.909 -638.263 388.912 -638.673L308.765 -779.41L389.099 -778.832C389.509 -778.83 389.922 -779.236 389.925 -779.646C389.928 -780.056 389.521 -780.469 389.111 -780.472L307.957 -781.055L268.694 -850.188L349.029 -849.611C349.438 -849.608 349.438 -849.608 349.851 -850.015C349.854 -850.424 349.854 -850.424 349.857 -850.834L309.787 -921.613L350.87 -991.808C351.283 -992.215 350.876 -992.627 350.469 -993.04C350.062 -993.453 349.65 -993.046 349.237 -992.639L308.569 -923.261L228.422 -1064C228.024 -1065.64 227.614 -1065.64 227.204 -1065.65ZM226.604 -925.079L187.746 -993.39L266.44 -992.824L226.604 -925.079ZM306.932 -923.682L228.238 -924.248L268.074 -991.993L306.932 -923.682ZM183.463 -853.669L104.768 -854.235L124.686 -888.108L144.604 -921.98L183.463 -853.669ZM103.134 -855.066L64.2758 -923.377L142.97 -922.811L103.134 -855.066ZM308.141 -920.805L347 -852.494L268.305 -853.06L308.141 -920.805ZM267.082 -853.888L228.223 -922.199L306.918 -921.633L267.082 -853.888ZM265.436 -853.08L186.741 -853.646L226.578 -921.391L265.436 -853.08ZM305.913 -781.889L225.989 -782.464L186.727 -851.597L266.651 -851.022L305.913 -781.889ZM143.612 -783.875L104.753 -852.186L183.448 -851.62L143.612 -783.875ZM185.081 -850.789L223.94 -782.478L145.245 -783.044L185.081 -850.789ZM141.966 -783.067L63.2715 -783.633L103.108 -851.378L141.966 -783.067ZM265.237 -711.281L184.493 -711.862L145.23 -780.995L305.899 -779.84L265.237 -711.281ZM307.122 -779.012L345.981 -710.701L267.286 -711.267L307.122 -779.012ZM182.444 -711.876L103.749 -712.442L143.585 -780.187L182.444 -711.876ZM102.115 -713.273L63.2568 -781.584L141.951 -781.018L102.115 -713.273ZM306.13 -640.907L267.272 -709.218L345.966 -708.652L306.13 -640.907ZM266.039 -708.817L304.897 -640.506L226.203 -641.072L266.039 -708.817ZM224.566 -641.493L185.708 -709.804L264.402 -709.238L224.566 -641.493ZM142.593 -642.082L103.734 -710.393L182.429 -709.827L142.593 -642.082ZM222.921 -640.685L144.226 -641.251L184.062 -708.996L222.921 -640.685ZM346.584 -566.437L385.442 -498.127L306.747 -498.692L346.584 -566.437ZM305.114 -499.524L266.255 -567.834L344.95 -567.269L305.114 -499.524ZM265.02 -567.024L303.878 -498.713L225.184 -499.278L265.02 -567.024ZM100.08 -430.097L60.8178 -499.23L101.07 -567.792L140.332 -498.659L100.08 -430.097ZM225.169 -497.229L305.093 -496.655L344.356 -427.522L264.431 -428.096L225.169 -497.229ZM223.524 -496.422L262.382 -428.111L183.687 -428.677L223.524 -496.422ZM182.054 -429.508L102.718 -569.01L263.386 -567.855L182.054 -429.508ZM180.408 -428.7L101.714 -429.266L141.55 -497.011L180.408 -428.7ZM60.0127 -501.285L21.1543 -569.596L99.8489 -569.03L60.0127 -501.285ZM265.046 -570.712L226.188 -639.023L304.883 -638.457L265.046 -570.712ZM181.427 -570.493L102.733 -571.059L142.569 -638.804L181.427 -570.493ZM263.401 -569.904L183.477 -570.478L144.214 -639.612L224.139 -639.037L263.401 -569.904ZM264.001 -425.231L302.859 -356.92L224.165 -357.485L264.001 -425.231ZM222.531 -358.317L183.673 -426.628L262.367 -426.062L222.531 -358.317ZM140.558 -358.906L101.699 -427.217L180.394 -426.651L140.558 -358.906ZM182.027 -425.82L220.886 -357.509L142.191 -358.074L182.027 -425.82ZM138.912 -358.098L59.3977 -358.669L20.1353 -427.803L100.06 -427.228L138.912 -358.098ZM57.3484 -358.684L-21.3463 -359.25L18.4899 -426.995L57.3484 -358.684ZM263.011 -287.535L224.153 -355.846L302.848 -355.281L263.011 -287.535ZM179.389 -286.907L100.695 -287.472L140.531 -355.218L179.389 -286.907ZM261.363 -286.318L181.439 -286.892L142.176 -356.025L222.101 -355.451L261.363 -286.318ZM99.0641 -288.714L60.2057 -357.024L138.9 -356.459L99.0641 -288.714ZM221.515 -216.934L182.657 -285.244L261.351 -284.679L221.515 -216.934ZM263.401 -284.664L343.325 -284.09L303.073 -215.528L223.149 -216.102L263.401 -284.664ZM344.549 -283.261L383.407 -214.95L304.712 -215.516L344.549 -283.261ZM139.126 -216.706L59.2014 -217.28L99.4534 -285.842L179.378 -285.268L139.126 -216.706ZM181.011 -284.436L219.87 -216.126L141.175 -216.691L181.011 -284.436ZM261.992 -145.742L223.134 -214.053L301.829 -213.487L261.992 -145.742ZM221.489 -213.245L260.347 -144.935L181.652 -145.5L221.489 -213.245ZM180.019 -146.332L141.16 -214.642L219.855 -214.077L180.019 -146.332ZM178.373 -145.524L98.859 -146.095L59.5965 -215.228L139.521 -214.654L178.373 -145.524ZM16.4814 -147.507L-22.3771 -215.817L56.3176 -215.252L16.4814 -147.507ZM57.9512 -214.421L96.8096 -146.11L18.1149 -146.675L57.9512 -214.421ZM14.836 -146.699L-63.8587 -147.264L-24.0225 -215.01L14.836 -146.699ZM-65.4923 -148.096L-104.351 -216.407L-25.656 -215.841L-65.4923 -148.096ZM343.556 -145.156L304.698 -213.467L383.392 -212.901L343.556 -145.156ZM423.884 -143.759L345.19 -144.325L385.026 -212.07L423.884 -143.759ZM97.0261 -5.12754L58.1677 -73.4382L136.862 -72.8727L97.0261 -5.12754ZM96.1946 -3.49425L55.9426 65.0676L16.6802 -4.06568L56.9322 -72.6275L96.1946 -3.49425ZM135.858 66.8713L57.1634 66.3058L96.9996 -1.43934L135.858 66.8713ZM260.95 -0.67091L299.808 67.6397L221.114 67.0742L260.95 -0.67091ZM180.622 -2.06785L259.316 -1.50231L219.48 66.2428L180.622 -2.06785ZM98.6479 -2.65696L178.572 -2.08258L217.835 67.0506L137.91 66.4762L98.6479 -2.65696ZM56.9587 -76.3157L18.1002 -144.626L96.7949 -144.061L56.9587 -76.3157ZM138.522 -75.7295L99.664 -144.04L178.359 -143.475L138.522 -75.7295ZM136.877 -74.9218L58.1824 -75.4873L98.0186 -143.232L136.877 -74.9218ZM261.966 -142.054L300.824 -73.7435L222.13 -74.3091L261.966 -142.054ZM181.638 -143.451L260.332 -142.886L220.496 -75.1404L181.638 -143.451ZM259.328 -3.14155L98.6597 -4.2962L179.992 -142.643L259.328 -3.14155ZM259.957 137.434L221.099 69.1232L299.794 69.6887L259.957 137.434ZM176.938 282.326L215.797 350.637L137.102 350.071L176.938 282.326ZM257.697 280.857L217.445 349.419L178.183 280.286L218.435 211.724L257.697 280.857ZM220.08 210.916L298.775 211.482L258.938 279.227L220.08 210.916ZM299.998 212.31L338.857 280.621L260.162 280.055L299.998 212.31ZM136.461 211.135L175.319 279.446L96.6247 278.88L136.461 211.135ZM138.106 210.327L216.801 210.893L176.965 278.638L138.106 210.327ZM93.7556 278.859L15.0609 278.294L54.8971 210.549L93.7556 278.859ZM94.9911 278.049L55.7286 208.916L96.8092 139.13L176.733 139.705L94.9911 278.049ZM177.957 140.533L216.816 208.844L138.121 208.278L177.957 140.533ZM219.454 69.931L258.716 139.064L218.464 207.626L179.202 138.493L219.454 69.931ZM176.338 137.653L97.6437 137.087L137.48 69.3419L176.338 137.653ZM177.984 136.845L139.125 68.5341L217.82 69.0996L177.984 136.845ZM93.975 419.432L14.6393 279.93L175.308 281.085L93.975 419.432ZM217.418 353.107L256.277 421.418L177.582 420.852L217.418 353.107ZM137.09 351.71L215.785 352.276L175.949 420.021L137.09 351.71ZM135.445 352.518L174.303 420.829L95.6086 420.263L135.445 352.518ZM92.7366 420.653L14.0419 420.087L53.8781 352.342L92.7366 420.653ZM13.4273 277.463L-25.4311 209.152L53.2635 209.717L13.4273 277.463ZM96.0101 136.256L57.1516 67.945L135.846 68.5105L96.0101 136.256ZM257.896 424.298L296.754 492.609L218.06 492.044L257.896 424.298ZM216.426 491.212L177.568 422.901L256.262 423.467L216.426 491.212ZM214.781 492.02L134.856 491.446L95.5939 422.312L175.518 422.887L214.781 492.02ZM132.807 491.431L54.1123 490.865L93.9485 423.12L132.807 491.431ZM52.8886 490.037L14.0301 421.726L92.7248 422.292L52.8886 490.037ZM256.903 562.403L218.045 494.093L296.74 494.658L256.903 562.403ZM216.399 494.9L255.258 563.211L176.563 562.645L216.399 494.9ZM174.93 561.814L136.071 493.503L214.766 494.069L174.93 561.814ZM173.284 562.622L94.5896 562.056L134.426 494.311L173.284 562.622ZM92.956 561.225L54.0976 492.914L132.792 493.48L92.956 561.225ZM131.788 633.224L53.0933 632.658L92.9295 564.913L131.788 633.224ZM133.433 632.416L94.5749 564.105L173.27 564.671L133.433 632.416Z" fill="url(#paint0_linear_55_1426)"/>
</g>
<defs>
<filter id="filter0_f_55_1426" x="-116.388" y="-1075.65" width="593.982" height="1789.08" filterUnits="userSpaceOnUse" color-interpolation-filters="sRGB">
<feFlood flood-opacity="0" result="BackgroundImageFix"/>
<feBlend mode="normal" in="SourceGraphic" in2="BackgroundImageFix" result="shape"/>
<feGaussianBlur stdDeviation="5" result="effect1_foregroundBlur_55_1426"/>
</filter>
<linearGradient id="paint0_linear_55_1426" x1="173.862" y1="710.271" x2="186.61" y2="-1063.62" gradientUnits="userSpaceOnUse">
<stop stop-color="#0096F5"/>
<stop offset="0.582546" stop-color="#8B0CA0"/>
<stop offset="1" stop-color="#FF0000"/>
</linearGradient>
</defs>
</svg>
